<?xml version="1.0" encoding="utf-8"?>
<!-- Generator: Adobe Illustrator 26.3.1, SVG Export Plug-In . SVG Version: 6.00 Build 0)  -->
<svg version="1.1" id="final" xmlns="http://www.w3.org/2000/svg" xmlns:xlink="http://www.w3.org/1999/xlink" x="0px" y="0px"
	 viewBox="0 0 4435 1171" style="enable-background:new 0 0 4435 1171;" xml:space="preserve">
<path d="M1740.7,580.8l-191.9-213.6v213.6h-110.4V0h110.4v296l170.3-189.8h131l-202.2,224.9l223.9,249.7H1740.7z"/>
<path d="M2227.8,98.9v104.3c-55.8,1-167.2,18.5-167.2,147.5v230.1h-110.4V106.2h110.4v85.6C2099.8,126.8,2163.8,100,2227.8,98.9z"/>
<path d="M2737.5,343.5v31h-357c11.3,74.3,64,120.7,134.1,120.7c66.1,0,104.3-29.9,123.9-57.8l76.3,55.7
	c-41.2,59.9-113.5,97-200.2,97c-144.4,0-241.4-105.2-241.4-246.6S2366,97.9,2509.5,97.9C2648.8,97.9,2737.5,202.1,2737.5,343.5z
	 M2381.5,303.3h252.8c-12.3-67.1-54.6-117.7-124.8-117.7S2393.9,232.1,2381.5,303.3z"/>
<path d="M3310.2,106.2v474.6h-110.4V520c-33,42.3-83.6,69.1-149.6,69.1c-132.1,0-228.1-104.2-228.1-245.6
	c0-143.4,96-244.6,228.1-244.6c66,0,116.6,25.8,149.6,69.2v-61.9L3310.2,106.2z M3199.8,343.5c0-81.5-52.6-140.3-134.1-140.3
	s-135.2,58.8-135.2,140.3s53.7,141.4,135.2,141.4S3199.8,425,3199.8,343.5z"/>
<path d="M3573.4,190.8v243.5c0,53.7,33,59.9,63.9,59.9h36.2v86.6H3593c-87.7,0-131.1-46.4-131.1-128.9V190.8H3399v-84.6h62.9V0
	h111.5v106.2h105.2v84.6L3573.4,190.8z"/>
<path d="M3779.7,580.8V106.2h112.5l-1,474.6H3779.7z"/>
<path d="M4245.1,203.2c-81.5,0-137.2,58.8-137.2,140.3s55.7,141.4,137.2,141.4c56.8,0,89.8-24.8,110.4-51.6l79.5,59.8
	c-41.3,59.9-109.4,97-193,97c-143.4,0-242.5-103.2-242.5-246.6S4098.6,97.9,4242,97.9c83.6,0,151.7,37.2,193,96l-79.5,61.9
	C4335.9,230,4301.9,203.2,4245.1,203.2z"/>
<path d="M2133.9,687L1977,1163h-108l-103.5-304.7L1661,1163h-108l-153.8-476h114.5l101.1,317.9L1725.2,687h82.6l109.4,317.9
	L2018.3,687H2133.9z"/>
<path d="M2637.5,924.4v30.9h-357.1c11.4,74.3,64,120.8,134.2,120.8c66,0,104.2-30,123.8-57.8l76.4,55.7
	c-41.3,59.9-113.6,97-200.2,97c-144.5,0-241.5-105.3-241.5-246.6s92.9-245.6,236.3-245.6C2548.7,678.8,2637.5,783,2637.5,924.4z
	 M2281.4,884.1h252.9c-12.4-67-54.7-117.6-124.9-117.6S2293.8,812.9,2281.4,884.1L2281.4,884.1z"/>
<path d="M3226.7,924.4c0,141.3-95,245.6-227,245.6c-66.1,0-116.7-26.9-149.7-69.2v62.2h-110l-0.4-581H2850v166.9
	c33-43.3,83.6-69.1,149.7-69.1C3131.7,679.8,3226.7,780.9,3226.7,924.4z M3119.4,924.4c0-81.5-53.7-140.4-135.2-140.4
	S2850,842.9,2850,924.4s52.7,141.3,134.2,141.3S3119.4,1005.9,3119.4,924.4z"/>
<path d="M0,0v1163h1163V0H0z M532.9,521.9V1057H422V745L247.5,919.5l-78.6-78.6l205-204.9H169V525h205.1L169,320l78.4-78.4
	L422,416.2V104h110.9V521.9z M995,635.9H790L995,841l-78.5,78.5L742,744.9V1057H631.2V104H742v312.1l174.5-174.6L995,320L790,525.1
	h205V635.9z"/>
</svg>
